<svg width="64" height="64" viewBox="0 0 64 64" fill="none" xmlns="http://www.w3.org/2000/svg">
<rect width="64" height="64" rx="32" fill="black" fill-opacity="0.25"/>
<path d="M42.8274 39.8625C42.2379 38.4662 41.3824 37.1978 40.3087 36.1281C39.2381 35.0553 37.97 34.2 36.5743 33.6094C36.5618 33.6031 36.5493 33.6 36.5368 33.5938C38.4837 32.1875 39.7493 29.8969 39.7493 27.3125C39.7493 23.0312 36.2805 19.5625 31.9993 19.5625C27.718 19.5625 24.2493 23.0312 24.2493 27.3125C24.2493 29.8969 25.5149 32.1875 27.4618 33.5969C27.4493 33.6031 27.4368 33.6062 27.4243 33.6125C26.0243 34.2031 24.768 35.05 23.6899 36.1313C22.6171 37.2018 21.7618 38.4699 21.1712 39.8656C20.5909 41.232 20.278 42.697 20.2493 44.1812C20.2485 44.2146 20.2543 44.2478 20.2665 44.2788C20.2787 44.3099 20.297 44.3382 20.3203 44.3621C20.3436 44.386 20.3714 44.4049 20.4021 44.4179C20.4329 44.4308 20.4659 44.4375 20.4993 44.4375H22.3743C22.5118 44.4375 22.6212 44.3281 22.6243 44.1938C22.6868 41.7812 23.6555 39.5219 25.368 37.8094C27.1399 36.0375 29.493 35.0625 31.9993 35.0625C34.5055 35.0625 36.8587 36.0375 38.6305 37.8094C40.343 39.5219 41.3118 41.7812 41.3743 44.1938C41.3774 44.3313 41.4868 44.4375 41.6243 44.4375H43.4993C43.5326 44.4375 43.5657 44.4308 43.5964 44.4179C43.6272 44.4049 43.655 44.386 43.6783 44.3621C43.7016 44.3382 43.7199 44.3099 43.7321 44.2788C43.7443 44.2478 43.7501 44.2146 43.7493 44.1812C43.718 42.6875 43.4087 41.2344 42.8274 39.8625ZM31.9993 32.6875C30.5649 32.6875 29.2149 32.1281 28.1993 31.1125C27.1837 30.0969 26.6243 28.7469 26.6243 27.3125C26.6243 25.8781 27.1837 24.5281 28.1993 23.5125C29.2149 22.4969 30.5649 21.9375 31.9993 21.9375C33.4337 21.9375 34.7837 22.4969 35.7993 23.5125C36.8149 24.5281 37.3743 25.8781 37.3743 27.3125C37.3743 28.7469 36.8149 30.0969 35.7993 31.1125C34.7837 32.1281 33.4337 32.6875 31.9993 32.6875Z" fill="white"/>
</svg>
